<?xml version="1.0" encoding="utf-8"?>
<!-- Generator: Adobe Illustrator 19.1.0, SVG Export Plug-In . SVG Version: 6.00 Build 0)  -->
<svg version="1.1" id="Layer_1" xmlns="http://www.w3.org/2000/svg" xmlns:xlink="http://www.w3.org/1999/xlink" x="0px" y="0px"
	 viewBox="150.9 285.1 294.6 133" style="enable-background:new 150.9 285.1 294.6 133;" xml:space="preserve">
<g>
	<g>
		<path d="M154.1,339c-9.5,23,3.1,49.8,23.7,62c23.5,13.9,53.3,5.4,72-12.4c20-19,32.1-56,8.7-77.3c-8.8-8-23.4-12.6-33.6-4.4
			c-12.1,9.7-0.1,23.6,8.7,30.4c23,17.8,56.8,18.5,84.5,15c14.5-1.8,28.8-5.4,41.9-12c12.4-6.2,26.2-15.7,31.5-29
			c2.5-6.2,2.6-13.2-1.6-18.7c-4-5.2-10.6-7-16.9-7.4c-14.5-0.8-29.8,4.1-42.3,11c-25.6,14.2-47.7,44.3-40.1,74.8
			c6.5,26,32.3,43.3,57.8,46.6c30.5,3.9,58.9-13,80.3-33.3c5.6-5.3,10.8-11,15.6-16.9c4.1-5-3.1-12.1-7.1-7.1
			c-15.8,20-35.5,37.5-60.5,44.6c-22.1,6.3-46,2.4-63.2-13.7c-7.4-6.9-13-15.8-14.7-25.9c-2.3-13.4,2.6-27,10-37.9
			c13.6-20,39.5-35,64.2-33.8c5.6,0.3,12,2.4,12.1,9.1c0.1,6.6-4.9,12.6-9.4,16.9c-8.9,8.5-19.9,14.6-31.4,18.7
			c-23.1,8.1-50,10.1-74.1,6c-11.9-2-23.9-5.9-33.4-13.6c-3.9-3.1-10.7-8.6-10.1-14.2c0.6-6.2,8.9-7.8,13.9-7.1
			c12.3,1.7,21.3,13.3,23.6,24.9c2.7,13.7-2,28.5-9.5,39.9c-14.2,21.5-42.9,35.9-68.3,26.7c-23.8-8.6-39.8-37-30.4-61.4
			C156.4,338.3,154.6,337.8,154.1,339L154.1,339z"/>
	</g>
</g>
</svg>
